<svg xmlns="http://www.w3.org/2000/svg" width="4096" height="4469" fill="none" viewBox="0 0 4096 4469">
  <path stroke="#fff" stroke-width="50" d="m2695 3473.62 12.19-799m780.31 16.34-701 42m-1147.48 978.03 31-768"/>
  <path stroke="#717171" stroke-width="5" d="M2.5 2.5h251v251H2.5zm256 0h251v251h-251zm256 0h251v251h-251zm256 0h251v251h-251zm256 0h251v251h-251zm256 0h251v251h-251zm256 0h251v251h-251zm256 0h251v251h-251zm256 0h251v251h-251zm256 0h251v251h-251zm256 0h251v251h-251zm256 0h251v251h-251zm256 0h251v251h-251zm256 0h251v251h-251zm256 0h251v251h-251zm256 0h251v251h-251zm-3840 256h251v251H2.5zm256 0h251v251h-251zm256 0h251v251h-251zm256 0h251v251h-251zm256 0h251v251h-251zm256 0h251v251h-251zm256 0h251v251h-251zm256 0h251v251h-251zm256 0h251v251h-251zm256 0h251v251h-251zm256 0h251v251h-251zm256 0h251v251h-251zm256 0h251v251h-251zm256 0h251v251h-251zm256 0h251v251h-251zm256 0h251v251h-251zm-3840 256h251v251H2.5zm256 0h251v251h-251zm256 0h251v251h-251zm256 0h251v251h-251zm256 0h251v251h-251zm256 0h251v251h-251zm256 0h251v251h-251zm256 0h251v251h-251zm256 0h251v251h-251zm256 0h251v251h-251zm256 0h251v251h-251zm256 0h251v251h-251zm256 0h251v251h-251zm256 0h251v251h-251zm256 0h251v251h-251zm256 0h251v251h-251zm-3840 256h251v251H2.5zm256 0h251v251h-251zm256 0h251v251h-251zm256 0h251v251h-251zm256 0h251v251h-251zm256 0h251v251h-251zm256 0h251v251h-251zm256 0h251v251h-251zm256 0h251v251h-251zm256 0h251v251h-251zm256 0h251v251h-251zm256 0h251v251h-251zm256 0h251v251h-251zm256 0h251v251h-251zm256 0h251v251h-251zm256 0h251v251h-251zm-3840 256h251v251H2.5zm256 0h251v251h-251zm256 0h251v251h-251zm256 0h251v251h-251zm256 0h251v251h-251zm256 0h251v251h-251zm256 0h251v251h-251zm256 0h251v251h-251zm256 0h251v251h-251zm256 0h251v251h-251zm256 0h251v251h-251zm256 0h251v251h-251zm256 0h251v251h-251zm256 0h251v251h-251zm256 0h251v251h-251zm256 0h251v251h-251zm-3840 256h251v251H2.5zm256 0h251v251h-251zm256 0h251v251h-251zm256 0h251v251h-251zm256 0h251v251h-251zm256 0h251v251h-251zm256 0h251v251h-251zm256 0h251v251h-251zm256 0h251v251h-251zm256 0h251v251h-251zm256 0h251v251h-251zm256 0h251v251h-251zm256 0h251v251h-251zm256 0h251v251h-251zm256 0h251v251h-251zm256 0h251v251h-251zm-3840 256h251v251H2.5zm256 0h251v251h-251zm256 0h251v251h-251zm256 0h251v251h-251zm256 0h251v251h-251zm256 0h251v251h-251zm256 0h251v251h-251zm256 0h251v251h-251zm256 0h251v251h-251zm256 0h251v251h-251zm256 0h251v251h-251zm256 0h251v251h-251zm256 0h251v251h-251zm256 0h251v251h-251z"/>
  <path fill="#3E3E3E" stroke="#717171" stroke-width="5" d="M3586.5 1538.5h251v251h-251z"/>
  <path stroke="#717171" stroke-width="5" d="M3842.5 1538.5h251v251h-251zm-3840 256h251v251H2.5zm256 0h251v251h-251zm256 0h251v251h-251zm256 0h251v251h-251zm256 0h251v251h-251zm256 0h251v251h-251zm256 0h251v251h-251zm256 0h251v251h-251zm256 0h251v251h-251zm256 0h251v251h-251zm256 0h251v251h-251zm256 0h251v251h-251zm256 0h251v251h-251zm256 0h251v251h-251zm256 0h251v251h-251zm256 0h251v251h-251zm-3840 256h251v251H2.5zm256 0h251v251h-251zm256 0h251v251h-251zm256 0h251v251h-251zm256 0h251v251h-251zm256 0h251v251h-251zm256 0h251v251h-251zm256 0h251v251h-251zm256 0h251v251h-251zm256 0h251v251h-251zm256 0h251v251h-251zm256 0h251v251h-251zm256 0h251v251h-251zm256 0h251v251h-251zm256 0h251v251h-251zm256 0h251v251h-251zm-3840 256h251v251H2.5zm256 0h251v251h-251zm256 0h251v251h-251zm256 0h251v251h-251zm256 0h251v251h-251zm256 0h251v251h-251zm256 0h251v251h-251zm256 0h251v251h-251zm256 0h251v251h-251zm256 0h251v251h-251zm256 0h251v251h-251zm256 0h251v251h-251zm256 0h251v251h-251zm256 0h251v251h-251zm256 0h251v251h-251zm256 0h251v251h-251zm-3840 256h251v251H2.5zm256 0h251v251h-251zm256 0h251v251h-251zm256 0h251v251h-251zm256 0h251v251h-251zm256 0h251v251h-251zm256 0h251v251h-251zm256 0h251v251h-251zm256 0h251v251h-251zm256 0h251v251h-251zm256 0h251v251h-251zm256 0h251v251h-251zm256 0h251v251h-251z"/>
  <path fill="#3E3E3E" stroke="#717171" stroke-width="5" d="M3330.5 2562.5h251v251h-251z"/>
  <path stroke="#717171" stroke-width="5" d="M3586.5 2562.5h251v251h-251zm256 0h251v251h-251zm-3840 256h251v251H2.5zm256 0h251v251h-251zm256 0h251v251h-251zm256 0h251v251h-251zm256 0h251v251h-251zm256 0h251v251h-251zm256 0h251v251h-251zm256 0h251v251h-251zm256 0h251v251h-251zm256 0h251v251h-251zm256 0h251v251h-251zm256 0h251v251h-251zm256 0h251v251h-251zm256 0h251v251h-251zm256 0h251v251h-251zm256 0h251v251h-251zm-3840 256h251v251H2.5zm256 0h251v251h-251zm256 0h251v251h-251zm256 0h251v251h-251zm256 0h251v251h-251zm256 0h251v251h-251zm256 0h251v251h-251zm256 0h251v251h-251zm256 0h251v251h-251zm256 0h251v251h-251zm256 0h251v251h-251zm256 0h251v251h-251zm256 0h251v251h-251zm256 0h251v251h-251zm256 0h251v251h-251zm256 0h251v251h-251zm-3840 256h251v251H2.5zm256 0h251v251h-251zm256 0h251v251h-251zm256 0h251v251h-251zm256 0h251v251h-251zm256 0h251v251h-251zm256 0h251v251h-251zm256 0h251v251h-251zm256 0h251v251h-251zm256 0h251v251h-251z"/>
  <path fill="#3E3E3E" stroke="#717171" stroke-width="5" d="M2562.5 3330.5h251v251h-251z"/>
  <path stroke="#717171" stroke-width="5" d="M2818.5 3330.5h251v251h-251zm256 0h251v251h-251zm256 0h251v251h-251zm256 0h251v251h-251zm256 0h251v251h-251zm-3840 256h251v251H2.5zm256 0h251v251h-251zm256 0h251v251h-251zm256 0h251v251h-251zm256 0h251v251h-251zm256 0h251v251h-251zm512 0h251v251h-251zm256 0h251v251h-251zm256 0h251v251h-251zm256 0h251v251h-251zm256 0h251v251h-251zm256 0h251v251h-251zm256 0h251v251h-251zm256 0h251v251h-251zm256 0h251v251h-251zm-3840 256h251v251H2.5zm256 0h251v251h-251zm256 0h251v251h-251zm256 0h251v251h-251zm256 0h251v251h-251zm256 0h251v251h-251zm256 0h251v251h-251zm256 0h251v251h-251zm256 0h251v251h-251zm256 0h251v251h-251zm256 0h251v251h-251zm256 0h251v251h-251zm256 0h251v251h-251zm256 0h251v251h-251zm256 0h251v251h-251zm256 0h251v251h-251z"/>
  <path fill="#3E3E3E" stroke="#717171" stroke-width="5" d="M1538.5 3586.5h251v251h-251z"/>
  <path stroke="#fff" stroke-width="50" d="m1640.5 2936.32 256-768.01m-256 783.82-256-768m535.72 17.09h-512m525.87-45.8 768 512m-793.05-513.56 512-256m36.18-233.64v256m-31.06-231.75-1024-256m-18.94 760.93v-785.18"/>
  <path stroke="#717171" stroke-width="5" d="M1026.5 1026.5h251v251h-251z"/>
  <path stroke="#fff" stroke-width="5" d="M1282.5 1026.5h251v251h-251zm256 0h251v251h-251zm256 0h251v251h-251zm256 0h251v251h-251zm256 0h251v251h-251zm256 0h251v251h-251z"/>
  <path stroke="#717171" stroke-width="5" d="M2818.5 1026.5h251v251h-251z"/>
  <path stroke="#fff" stroke-width="5" d="M1026.5 1282.5h251v251h-251z"/>
  <path fill="#D9D9D9" stroke="#fff" stroke-width="5" d="M1282.5 1282.5h251v251h-251z"/>
  <path stroke="#fff" stroke-width="5" d="M1538.5 1282.5h251v251h-251zm256 0h251v251h-251zm256 0h251v251h-251zm256 0h251v251h-251zm256 0h251v251h-251zm256 0h251v251h-251zm-1792 256h251v251h-251zm256 0h251v251h-251zm256 0h251v251h-251zm256 0h251v251h-251zm256 0h251v251h-251z"/>
  <path fill="#D9D9D9" stroke="#fff" stroke-width="5" d="M2306.5 1538.5h251v251h-251z"/>
  <path stroke="#fff" stroke-width="5" d="M2562.5 1538.5h251v251h-251zm256 0h251v251h-251zm-1792 256h251v251h-251zm256 0h251v251h-251zm256 0h251v251h-251zm256 0h251v251h-251zm256 0h251v251h-251z"/>
  <path fill="#D9D9D9" stroke="#fff" stroke-width="5" d="M2306.5 1794.5h251v251h-251z"/>
  <path stroke="#fff" stroke-width="5" d="M2562.5 1794.5h251v251h-251zm256 0h251v251h-251zm-1792 256h251v251h-251z"/>
  <path fill="#D9D9D9" stroke="#fff" stroke-width="5" d="M1282.5 2050.5h251v251h-251z"/>
  <path stroke="#fff" stroke-width="5" d="M1538.5 2050.5h251v251h-251z"/>
  <path fill="#D9D9D9" stroke="#fff" stroke-width="5" d="M1794.5 2050.5h251v251h-251z"/>
  <path stroke="#fff" stroke-width="5" d="M2050.5 2050.5h251v251h-251zm256 0h251v251h-251zm256 0h251v251h-251zm256 0h251v251h-251zm-1792 256h251v251h-251zm256 0h251v251h-251zm256 0h251v251h-251zm256 0h251v251h-251zm256 0h251v251h-251zm256 0h251v251h-251zm256 0h251v251h-251zm256 0h251v251h-251zm-1792 256h251v251h-251zm256 0h251v251h-251zm256 0h251v251h-251zm256 0h251v251h-251zm256 0h251v251h-251zm256 0h251v251h-251z"/>
  <path fill="#D9D9D9" stroke="#fff" stroke-width="5" d="M2562.5 2562.5h251v251h-251z"/>
  <path stroke="#fff" stroke-width="5" d="M2818.5 2562.5h251v251h-251z"/>
  <path stroke="#717171" stroke-width="5" d="M1026.5 2818.5h251v251h-251z"/>
  <path stroke="#fff" stroke-width="5" d="M1282.5 2818.5h251v251h-251z"/>
  <path fill="#D9D9D9" stroke="#fff" stroke-width="5" d="M1538.5 2818.5h251v251h-251z"/>
  <path stroke="#fff" stroke-width="5" d="M1794.5 2818.5h251v251h-251zm256 0h251v251h-251zm256 0h251v251h-251zm256 0h251v251h-251z"/>
  <path stroke="#717171" stroke-width="5" d="M2818.5 2818.5h251v251h-251z"/>
  <path fill="gray" d="m1784.29 4145.18 20.72 58.77h.82l20.73-58.77h8.86l-25.63 69.82h-8.73l-25.64-69.82h8.87Zm60.92 69.82v-52.36h8.04V4215h-8.04Zm4.09-61.09c-1.57 0-2.92-.53-4.06-1.6-1.11-1.07-1.67-2.36-1.67-3.86s.56-2.78 1.67-3.85c1.14-1.07 2.49-1.6 4.06-1.6 1.57 0 2.91.53 4.02 1.6 1.14 1.07 1.71 2.35 1.71 3.85s-.57 2.79-1.71 3.86c-1.11 1.07-2.45 1.6-4.02 1.6Zm18.69 61.09v-52.36h7.77v7.91h.55c.95-2.6 2.68-4.7 5.18-6.31 2.5-1.62 5.32-2.42 8.45-2.42.59 0 1.33.01 2.22.03.89.02 1.56.06 2.01.1v8.19c-.27-.07-.9-.17-1.87-.31-.96-.16-1.97-.24-3.04-.24-2.54 0-4.82.53-6.82 1.6-1.97 1.05-3.54 2.5-4.7 4.37-1.14 1.84-1.71 3.94-1.71 6.3V4215h-8.04Zm61.77-52.36v6.81h-27.14v-6.81h27.14Zm-19.23-12.55h8.05V4200c0 2.27.33 3.98.99 5.11.68 1.12 1.54 1.87 2.59 2.25 1.07.37 2.19.55 3.37.55.89 0 1.62-.05 2.19-.14.56-.11 1.02-.2 1.36-.27l1.64 7.23c-.55.2-1.31.41-2.29.61-.98.23-2.21.34-3.71.34-2.28 0-4.5-.49-6.69-1.46-2.15-.98-3.95-2.47-5.38-4.47-1.41-2-2.12-4.52-2.12-7.57v-52.09Zm64.33 43.5v-30.95h8.05V4215h-8.05v-8.86h-.54c-1.23 2.66-3.14 4.92-5.73 6.78-2.59 1.84-5.86 2.76-9.82 2.76-3.27 0-6.18-.71-8.72-2.15-2.55-1.45-4.55-3.63-6-6.54-1.46-2.93-2.19-6.63-2.19-11.08v-33.27h8.05v32.72c0 3.82 1.07 6.87 3.2 9.14 2.16 2.27 4.91 3.41 8.25 3.41 2 0 4.04-.51 6.11-1.53 2.09-1.03 3.84-2.6 5.25-4.71 1.43-2.11 2.14-4.81 2.14-8.08Zm38.19 22.64c-3.31 0-6.33-.63-9.03-1.88-2.7-1.27-4.85-3.1-6.44-5.49-1.59-2.41-2.39-5.31-2.39-8.72 0-3 .59-5.44 1.77-7.3 1.18-1.89 2.76-3.36 4.74-4.43 1.98-1.07 4.16-1.86 6.55-2.39 2.41-.54 4.83-.97 7.26-1.29 3.18-.41 5.76-.72 7.74-.92 2-.23 3.45-.61 4.36-1.13.93-.52 1.4-1.43 1.4-2.73v-.27c0-3.36-.92-5.98-2.76-7.84-1.82-1.86-4.58-2.79-8.29-2.79-3.84 0-6.85.84-9.03 2.52-2.18 1.68-3.72 3.48-4.6 5.38l-7.64-2.72c1.36-3.18 3.18-5.66 5.45-7.43 2.3-1.8 4.8-3.05 7.5-3.75 2.73-.73 5.41-1.1 8.05-1.1 1.68 0 3.61.21 5.8.62 2.2.38 4.33 1.19 6.37 2.42 2.07 1.23 3.78 3.08 5.15 5.56 1.36 2.47 2.04 5.79 2.04 9.95v34.5h-8.04v-7.09h-.41c-.55 1.14-1.46 2.35-2.73 3.65-1.27 1.29-2.96 2.39-5.08 3.3-2.11.91-4.69 1.37-7.74 1.37Zm1.23-7.23c3.18 0 5.86-.62 8.05-1.88 2.2-1.24 3.86-2.86 4.97-4.84 1.14-1.97 1.71-4.05 1.71-6.23v-7.37c-.34.41-1.09.79-2.25 1.13-1.14.31-2.46.6-3.96.85-1.47.23-2.92.43-4.33.61-1.38.16-2.51.3-3.37.41-2.09.27-4.05.72-5.86 1.33-1.8.59-3.25 1.49-4.37 2.69-1.09 1.19-1.63 2.8-1.63 4.85 0 2.79 1.03 4.9 3.1 6.34 2.09 1.41 4.74 2.11 7.94 2.11Zm45.5-63.82V4215h-8.04v-69.82h8.04Zm72.01 21.82h-8.45c-.5-2.43-1.38-4.57-2.63-6.41a17.287 17.287 0 0 0-4.5-4.64 19.2 19.2 0 0 0-5.83-2.86c-2.13-.64-4.36-.95-6.68-.95-4.23 0-8.06 1.06-11.49 3.2-3.41 2.14-6.12 5.28-8.14 9.44-2 4.16-3 9.27-3 15.31 0 6.05 1 11.15 3 15.31 2.02 4.16 4.73 7.3 8.14 9.44 3.43 2.14 7.26 3.21 11.49 3.21 2.32 0 4.55-.32 6.68-.96 2.14-.64 4.08-1.58 5.83-2.83 1.78-1.27 3.28-2.83 4.5-4.67 1.25-1.86 2.13-4 2.63-6.41h8.45c-.63 3.57-1.79 6.76-3.47 9.58-1.69 2.82-3.78 5.22-6.28 7.19-2.5 1.96-5.3 3.45-8.42 4.47-3.09 1.02-6.4 1.53-9.92 1.53-5.95 0-11.25-1.45-15.88-4.36-4.64-2.91-8.29-7.04-10.95-12.41-2.66-5.36-3.99-11.73-3.99-19.09 0-7.36 1.33-13.73 3.99-19.09 2.66-5.36 6.31-9.5 10.95-12.41 4.63-2.91 9.93-4.36 15.88-4.36 3.52 0 6.83.51 9.92 1.53 3.12 1.02 5.92 2.52 8.42 4.5 2.5 1.96 4.59 4.34 6.28 7.16 1.68 2.8 2.84 5.99 3.47 9.58Zm20.62 16.5v31.5h-8.05v-69.82h8.05v25.64h.68c1.23-2.71 3.07-4.85 5.52-6.44 2.48-1.62 5.78-2.43 9.89-2.43 3.57 0 6.69.72 9.38 2.15 2.68 1.41 4.76 3.58 6.23 6.51 1.5 2.91 2.25 6.62 2.25 11.12V4215h-8.04v-32.73c0-4.16-1.08-7.37-3.24-9.65-2.14-2.29-5.1-3.44-8.9-3.44-2.63 0-5 .56-7.09 1.67-2.07 1.12-3.7 2.74-4.91 4.88-1.18 2.13-1.77 4.72-1.77 7.77Zm81.67 10.09v-30.95h8.05V4215h-8.05v-8.86h-.54c-1.23 2.66-3.14 4.92-5.73 6.78-2.59 1.84-5.86 2.76-9.82 2.76-3.27 0-6.18-.71-8.73-2.15-2.54-1.45-4.54-3.63-6-6.54-1.45-2.93-2.18-6.63-2.18-11.08v-33.27h8.05v32.72c0 3.82 1.07 6.87 3.2 9.14 2.16 2.27 4.91 3.41 8.25 3.41 2 0 4.04-.51 6.1-1.53 2.1-1.03 3.85-2.6 5.25-4.71 1.44-2.11 2.15-4.81 2.15-8.08Zm30.83-10.09v31.5h-8.05v-52.36h7.78v8.18h.68c1.23-2.66 3.09-4.8 5.59-6.41 2.5-1.64 5.73-2.46 9.68-2.46 3.55 0 6.65.73 9.31 2.19 2.66 1.43 4.73 3.61 6.2 6.54 1.48 2.91 2.22 6.59 2.22 11.05V4215h-8.05v-32.73c0-4.11-1.07-7.32-3.2-9.61-2.14-2.32-5.07-3.48-8.8-3.48-2.57 0-4.86.56-6.88 1.67-2 1.12-3.58 2.74-4.74 4.88-1.16 2.13-1.74 4.72-1.74 7.77Zm55.61 12.41-.14-9.96h1.64l22.91-23.31h9.95l-24.41 24.68h-.68l-9.27 8.59Zm-7.5 19.09v-69.82h8.05V4215h-8.05Zm33.27 0-20.45-25.91 5.73-5.59 24.95 31.5h-10.23Zm56.04-40.64-7.23 2.05c-.45-1.21-1.12-2.38-2.01-3.51-.86-1.16-2.04-2.12-3.54-2.87s-3.43-1.12-5.77-1.12c-3.2 0-5.87.74-8.01 2.21-2.11 1.46-3.17 3.31-3.17 5.56 0 2 .73 3.58 2.18 4.74 1.46 1.16 3.73 2.13 6.82 2.9l7.78 1.91c4.68 1.13 8.17 2.87 10.46 5.21 2.3 2.32 3.44 5.31 3.44 8.97 0 3-.86 5.68-2.59 8.04-1.7 2.37-4.09 4.23-7.16 5.6-3.06 1.36-6.63 2.04-10.7 2.04-5.34 0-9.76-1.16-13.26-3.48-3.5-2.31-5.72-5.7-6.65-10.16l7.64-1.9c.72 2.81 2.1 4.93 4.12 6.34 2.05 1.41 4.72 2.11 8.01 2.11 3.75 0 6.73-.8 8.93-2.39 2.23-1.61 3.35-3.54 3.35-5.79 0-1.82-.64-3.34-1.91-4.57-1.28-1.25-3.23-2.18-5.87-2.8l-8.72-2.04c-4.8-1.14-8.32-2.9-10.57-5.29-2.23-2.4-3.34-5.42-3.34-9.03 0-2.95.83-5.57 2.49-7.84 1.68-2.27 3.96-4.06 6.85-5.35 2.91-1.3 6.2-1.95 9.88-1.95 5.19 0 9.25 1.14 12.21 3.41 2.98 2.28 5.09 5.28 6.34 9Z"/>
  <path fill="#fff" d="M1709.52 3165v-69.82h23.59c5.45 0 9.93.93 13.43 2.8 3.5 1.84 6.09 4.37 7.77 7.6 1.68 3.23 2.53 6.9 2.53 11.01 0 4.11-.85 7.76-2.53 10.94-1.68 3.19-4.26 5.69-7.74 7.5-3.47 1.8-7.92 2.7-13.33 2.7h-19.09v-7.64h18.82c3.73 0 6.73-.54 9-1.64 2.3-1.09 3.96-2.63 4.98-4.63 1.04-2.02 1.57-4.43 1.57-7.23 0-2.79-.53-5.24-1.57-7.33-1.05-2.09-2.72-3.7-5.01-4.84-2.3-1.16-5.33-1.74-9.1-1.74h-14.87V3165h-8.45Zm32.86-31.36 17.18 31.36h-9.82l-16.9-31.36h9.54Zm48.84 32.45c-5.04 0-9.39-1.11-13.05-3.34-3.64-2.25-6.45-5.39-8.42-9.41-1.96-4.04-2.93-8.75-2.93-14.11 0-5.37.97-10.09 2.93-14.18 1.97-4.12 4.72-7.32 8.25-9.62 3.54-2.32 7.68-3.48 12.41-3.48 2.72 0 5.42.46 8.08 1.37 2.65.91 5.08 2.38 7.26 4.43 2.18 2.02 3.92 4.7 5.21 8.05 1.3 3.34 1.95 7.45 1.95 12.34v3.41h-40.37v-6.96h32.18c0-2.95-.59-5.59-1.77-7.91-1.16-2.32-2.82-4.15-4.98-5.49-2.13-1.34-4.65-2.01-7.56-2.01-3.21 0-5.98.8-8.32 2.39a15.69 15.69 0 0 0-5.35 6.13c-1.25 2.53-1.88 5.23-1.88 8.12v4.63c0 3.96.68 7.31 2.05 10.06 1.38 2.73 3.3 4.81 5.76 6.24 2.45 1.41 5.3 2.11 8.55 2.11 2.12 0 4.03-.29 5.73-.88 1.73-.62 3.22-1.53 4.47-2.73 1.25-1.23 2.21-2.75 2.9-4.57l7.77 2.18c-.82 2.64-2.2 4.96-4.13 6.96-1.93 1.98-4.32 3.52-7.16 4.63-2.84 1.1-6.03 1.64-9.58 1.64Zm41.97-32.59v31.5h-8.05v-52.36h7.78v8.18h.68c1.23-2.66 3.09-4.8 5.59-6.41 2.5-1.64 5.73-2.46 9.68-2.46 3.55 0 6.65.73 9.31 2.19 2.66 1.43 4.73 3.61 6.2 6.54 1.48 2.91 2.22 6.59 2.22 11.05V3165h-8.05v-32.73c0-4.11-1.06-7.32-3.2-9.61-2.14-2.32-5.07-3.48-8.8-3.48-2.56 0-4.86.56-6.88 1.67-2 1.12-3.58 2.74-4.74 4.88-1.16 2.13-1.74 4.72-1.74 7.77Zm67.88 32.59c-4.36 0-8.21-1.1-11.55-3.31-3.34-2.22-5.96-5.36-7.84-9.4-1.89-4.07-2.83-8.88-2.83-14.43 0-5.5.94-10.27 2.83-14.31 1.88-4.05 4.51-7.17 7.87-9.38 3.36-2.2 7.25-3.31 11.66-3.31 3.41 0 6.1.57 8.08 1.71 2 1.11 3.52 2.39 4.57 3.82 1.07 1.41 1.9 2.57 2.49 3.47h.68v-25.77h8.04V3165h-7.77v-8.05h-.95c-.59.96-1.44 2.16-2.53 3.62-1.09 1.43-2.64 2.71-4.67 3.85-2.02 1.11-4.71 1.67-8.08 1.67Zm1.09-7.23c3.23 0 5.96-.84 8.19-2.52 2.22-1.7 3.92-4.06 5.08-7.06 1.16-3.02 1.73-6.51 1.73-10.46 0-3.91-.56-7.33-1.7-10.26-1.14-2.96-2.82-5.25-5.05-6.89-2.22-1.66-4.97-2.49-8.25-2.49-3.4 0-6.25.88-8.52 2.63-2.25 1.72-3.94 4.08-5.08 7.05-1.11 2.96-1.67 6.28-1.67 9.96 0 3.73.57 7.11 1.71 10.16 1.16 3.02 2.86 5.43 5.11 7.22 2.27 1.78 5.09 2.66 8.45 2.66Zm60.72 7.23c-5.04 0-9.4-1.11-13.06-3.34-3.63-2.25-6.44-5.39-8.42-9.41-1.95-4.04-2.93-8.75-2.93-14.11 0-5.37.98-10.09 2.93-14.18 1.98-4.12 4.73-7.32 8.25-9.62 3.55-2.32 7.69-3.48 12.41-3.48 2.73 0 5.42.46 8.08 1.37 2.66.91 5.08 2.38 7.26 4.43 2.19 2.02 3.92 4.7 5.22 8.05 1.29 3.34 1.94 7.45 1.94 12.34v3.41h-40.36v-6.96h32.18c0-2.95-.59-5.59-1.77-7.91-1.16-2.32-2.82-4.15-4.98-5.49-2.14-1.34-4.66-2.01-7.57-2.01-3.2 0-5.97.8-8.32 2.39a15.77 15.77 0 0 0-5.35 6.13c-1.25 2.53-1.87 5.23-1.87 8.12v4.63c0 3.96.68 7.31 2.04 10.06 1.39 2.73 3.31 4.81 5.76 6.24 2.46 1.41 5.31 2.11 8.56 2.11 2.11 0 4.02-.29 5.73-.88 1.73-.62 3.21-1.53 4.46-2.73 1.25-1.23 2.22-2.75 2.9-4.57l7.77 2.18c-.81 2.64-2.19 4.96-4.12 6.96-1.93 1.98-4.32 3.52-7.16 4.63-2.84 1.1-6.03 1.64-9.58 1.64Zm33.92-1.09v-52.36h7.77v7.91h.55c.95-2.6 2.68-4.7 5.18-6.31 2.5-1.62 5.32-2.42 8.46-2.42.59 0 1.33.01 2.21.03.89.02 1.56.06 2.01.1v8.19c-.27-.07-.89-.17-1.87-.31-.96-.16-1.97-.24-3.04-.24-2.54 0-4.81.53-6.81 1.6-1.98 1.05-3.55 2.5-4.71 4.37-1.14 1.84-1.7 3.94-1.7 6.3V3165h-8.05Zm56.08 1.09c-5.04 0-9.4-1.11-13.06-3.34-3.63-2.25-6.44-5.39-8.42-9.41-1.95-4.04-2.93-8.75-2.93-14.11 0-5.37.98-10.09 2.93-14.18 1.98-4.12 4.73-7.32 8.25-9.62 3.55-2.32 7.69-3.48 12.41-3.48 2.73 0 5.42.46 8.08 1.37 2.66.91 5.08 2.38 7.26 4.43 2.19 2.02 3.92 4.7 5.22 8.05 1.29 3.34 1.94 7.45 1.94 12.34v3.41h-40.36v-6.96h32.18c0-2.95-.59-5.59-1.77-7.91-1.16-2.32-2.82-4.15-4.98-5.49-2.14-1.34-4.66-2.01-7.57-2.01-3.2 0-5.97.8-8.32 2.39a15.77 15.77 0 0 0-5.35 6.13c-1.25 2.53-1.87 5.23-1.87 8.12v4.63c0 3.96.68 7.31 2.04 10.06 1.39 2.73 3.31 4.81 5.76 6.24 2.46 1.41 5.31 2.11 8.56 2.11 2.11 0 4.02-.29 5.73-.88 1.73-.62 3.21-1.53 4.46-2.73 1.25-1.23 2.22-2.75 2.9-4.57l7.77 2.18c-.81 2.64-2.19 4.96-4.12 6.96-1.93 1.98-4.32 3.52-7.16 4.63-2.84 1.1-6.03 1.64-9.58 1.64Zm53.69 0c-4.36 0-8.21-1.1-11.55-3.31-3.34-2.22-5.96-5.36-7.84-9.4-1.89-4.07-2.83-8.88-2.83-14.43 0-5.5.94-10.27 2.83-14.31 1.88-4.05 4.51-7.17 7.87-9.38 3.36-2.2 7.25-3.31 11.66-3.31 3.41 0 6.1.57 8.08 1.71 2 1.11 3.52 2.39 4.57 3.82 1.07 1.41 1.9 2.57 2.49 3.47h.68v-25.77h8.04V3165h-7.77v-8.05h-.95c-.59.96-1.44 2.16-2.53 3.62-1.09 1.43-2.64 2.71-4.67 3.85-2.02 1.11-4.71 1.67-8.08 1.67Zm1.09-7.23c3.23 0 5.96-.84 8.19-2.52 2.22-1.7 3.92-4.06 5.08-7.06 1.16-3.02 1.73-6.51 1.73-10.46 0-3.91-.56-7.33-1.7-10.26-1.14-2.96-2.82-5.25-5.05-6.89-2.22-1.66-4.97-2.49-8.25-2.49-3.4 0-6.25.88-8.52 2.63-2.25 1.72-3.94 4.08-5.08 7.05-1.11 2.96-1.67 6.28-1.67 9.96 0 3.73.57 7.11 1.71 10.16 1.16 3.02 2.86 5.43 5.11 7.22 2.27 1.78 5.09 2.66 8.45 2.66Zm96.04-41.86h-8.46c-.5-2.43-1.37-4.57-2.62-6.41a17.592 17.592 0 0 0-4.5-4.64 19.2 19.2 0 0 0-5.83-2.86c-2.14-.64-4.36-.95-6.68-.95-4.23 0-8.06 1.06-11.49 3.2-3.41 2.14-6.13 5.28-8.15 9.44-2 4.16-3 9.27-3 15.31 0 6.05 1 11.15 3 15.31 2.02 4.16 4.74 7.3 8.15 9.44 3.43 2.14 7.26 3.21 11.49 3.21 2.32 0 4.54-.32 6.68-.96 2.14-.64 4.08-1.58 5.83-2.83a18.02 18.02 0 0 0 4.5-4.67c1.25-1.86 2.12-4 2.62-6.41h8.46c-.64 3.57-1.8 6.76-3.48 9.58-1.68 2.82-3.77 5.22-6.27 7.19-2.5 1.96-5.31 3.45-8.42 4.47-3.09 1.02-6.4 1.53-9.92 1.53-5.96 0-11.25-1.45-15.89-4.36-4.63-2.91-8.28-7.04-10.94-12.41-2.66-5.36-3.99-11.73-3.99-19.09 0-7.36 1.33-13.73 3.99-19.09 2.66-5.36 6.31-9.5 10.94-12.41 4.64-2.91 9.93-4.36 15.89-4.36 3.52 0 6.83.51 9.92 1.53 3.11 1.02 5.92 2.52 8.42 4.5 2.5 1.96 4.59 4.34 6.27 7.16 1.68 2.8 2.84 5.99 3.48 9.58Zm20.62 16.5v31.5h-8.05v-69.82h8.05v25.64h.68c1.22-2.71 3.07-4.85 5.52-6.44 2.48-1.62 5.77-2.43 9.89-2.43 3.56 0 6.69.72 9.37 2.15 2.68 1.41 4.76 3.58 6.24 6.51 1.5 2.91 2.25 6.62 2.25 11.12V3165h-8.05v-32.73c0-4.16-1.08-7.37-3.23-9.65-2.14-2.29-5.11-3.44-8.9-3.44-2.64 0-5 .56-7.09 1.67-2.07 1.12-3.71 2.74-4.91 4.88-1.18 2.13-1.77 4.72-1.77 7.77Zm81.67 10.09v-30.95h8.04V3165h-8.04v-8.86h-.55c-1.22 2.66-3.13 4.92-5.72 6.78-2.59 1.84-5.87 2.76-9.82 2.76-3.28 0-6.18-.71-8.73-2.15-2.54-1.45-4.54-3.63-6-6.54-1.45-2.93-2.18-6.63-2.18-11.08v-33.27h8.04v32.72c0 3.82 1.07 6.87 3.21 9.14 2.16 2.27 4.91 3.41 8.25 3.41 2 0 4.03-.51 6.1-1.53 2.09-1.03 3.84-2.6 5.25-4.71 1.43-2.11 2.15-4.81 2.15-8.08Zm30.83-10.09v31.5h-8.05v-52.36h7.77v8.18h.68c1.23-2.66 3.1-4.8 5.6-6.41 2.5-1.64 5.72-2.46 9.68-2.46 3.54 0 6.64.73 9.3 2.19 2.66 1.43 4.73 3.61 6.21 6.54 1.48 2.91 2.21 6.59 2.21 11.05V3165h-8.04v-32.73c0-4.11-1.07-7.32-3.21-9.61-2.13-2.32-5.06-3.48-8.79-3.48-2.57 0-4.86.56-6.89 1.67-2 1.12-3.58 2.74-4.74 4.88-1.16 2.13-1.73 4.72-1.73 7.77Zm55.61 12.41-.14-9.96h1.64l22.91-23.31h9.95l-24.41 24.68h-.68l-9.27 8.59Zm-7.5 19.09v-69.82h8.04V3165h-8.04Zm33.27 0-20.46-25.91 5.73-5.59 24.96 31.5h-10.23Zm56.04-40.64-7.23 2.05c-.46-1.21-1.13-2.38-2.01-3.51-.87-1.16-2.05-2.12-3.55-2.87s-3.42-1.12-5.76-1.12c-3.2 0-5.87.74-8.01 2.21-2.11 1.46-3.17 3.31-3.17 5.56 0 2 .73 3.58 2.18 4.74 1.45 1.16 3.73 2.13 6.82 2.9l7.77 1.91c4.68 1.13 8.17 2.87 10.47 5.21 2.29 2.32 3.44 5.31 3.44 8.97 0 3-.86 5.68-2.59 8.04-1.71 2.37-4.09 4.23-7.16 5.6-3.07 1.36-6.64 2.04-10.7 2.04-5.35 0-9.77-1.16-13.27-3.48-3.5-2.31-5.71-5.7-6.64-10.16l7.63-1.9c.73 2.81 2.11 4.93 4.13 6.34 2.04 1.41 4.71 2.11 8.01 2.11 3.75 0 6.73-.8 8.93-2.39 2.23-1.61 3.34-3.54 3.34-5.79 0-1.82-.63-3.34-1.91-4.57-1.27-1.25-3.22-2.18-5.86-2.8l-8.73-2.04c-4.79-1.14-8.32-2.9-10.57-5.29-2.22-2.4-3.34-5.42-3.34-9.03 0-2.95.83-5.57 2.49-7.84 1.68-2.27 3.97-4.06 6.85-5.35 2.91-1.3 6.21-1.95 9.89-1.95 5.18 0 9.25 1.14 12.2 3.41 2.98 2.28 5.1 5.28 6.35 9Z"/>
  <circle cx="2048" cy="2048" r="997.5" fill="#6CBBA2" fill-opacity=".5" stroke="#00F4AF" stroke-width="53"/>
  <circle cx="2048" cy="2048" r="2021.5" fill="#714F4F" fill-opacity=".125" stroke="#775050" stroke-width="53"/>
  <circle cx="2048" cy="2059" r="113.827" fill="#5FA6C4"/>
</svg>
