<svg xmlns="http://www.w3.org/2000/svg" width="5271" height="4967" fill="none" viewBox="0 0 5271 4967">
  <path fill="#D9D9D9" d="M4435 2066h836v836h-836z"/>
  <path fill="#FF5B5B" fill-opacity=".25" stroke="#FF5B5B" stroke-width="50" d="M4878 2483.5C4878 3841.6 3791.31 4942 2451.5 4942S25 3841.6 25 2483.5 1111.69 25 2451.5 25 4878 1125.4 4878 2483.5Z"/>
  <path fill="#D9D9D9" d="M2034 2066h836v836h-836z"/>
  <path fill="#700" d="m2516 2493 124.72-72.65.56 144.34L2516 2493Zm2337-9-124.72 72.65-.56-144.34L4853 2484Zm-2224.55-3.93 2112-8.14.1 25-2112 8.14-.1-25Z"/>
  <path fill="#E7ACAC" d="M3146.33 2584.27h7.67l26.39 63.35h.64l26.38-63.35h7.67V2657h-6.25v-58.7h-.57l-24.53 58.7h-6.04l-24.54-58.7h-.57v58.7h-6.25v-72.73Zm102.01 73.97c-3.29 0-6.3-.64-9.02-1.91-2.72-1.31-4.89-3.18-6.5-5.62-1.61-2.46-2.41-5.44-2.41-8.94 0-2.7.51-4.98 1.52-6.82 1.02-1.85 2.47-3.36 4.34-4.55 1.87-1.18 4.08-2.12 6.64-2.8 2.55-.69 5.37-1.22 8.45-1.6 3.05-.38 5.63-.71 7.74-1 2.13-.28 3.75-.73 4.86-1.35 1.12-.61 1.67-1.61 1.67-2.98v-1.28c0-3.71-1.11-6.64-3.33-8.77-2.21-2.15-5.38-3.23-9.52-3.23-3.93 0-7.14.86-9.63 2.59-2.46 1.73-4.19 3.77-5.18 6.11l-6-2.17c1.23-2.98 2.93-5.36 5.11-7.13 2.18-1.8 4.62-3.09 7.32-3.87 2.7-.81 5.43-1.21 8.2-1.21 2.08 0 4.25.27 6.5.82 2.27.54 4.38 1.49 6.32 2.84 1.94 1.32 3.52 3.18 4.72 5.57 1.21 2.37 1.81 5.38 1.81 9.02V2657h-6.32v-8.63h-.39c-.75 1.61-1.88 3.17-3.37 4.69-1.49 1.51-3.36 2.76-5.61 3.73-2.25.97-4.89 1.45-7.92 1.45Zm.85-5.79c3.36 0 6.28-.74 8.74-2.23s4.35-3.47 5.68-5.93c1.35-2.49 2.02-5.22 2.02-8.21v-7.88c-.47.45-1.26.85-2.38 1.21-1.08.35-2.35.67-3.8.96-1.42.26-2.84.48-4.26.67-1.42.19-2.7.36-3.83.5-3.08.38-5.71.97-7.89 1.77-2.17.81-3.84 1.92-5 3.34-1.16 1.4-1.74 3.2-1.74 5.4 0 3.31 1.18 5.88 3.55 7.71 2.37 1.79 5.34 2.69 8.91 2.69Zm43.49-50 14.06 23.26 14.06-23.26h7.35l-17.54 27.28 17.54 27.27h-7.35l-14.06-22.51-14.06 22.51h-7.32l17.33-27.27-17.33-27.28h7.32Zm134.81-18.18V2657h-6.47l-42.97-60.9h-.56v60.9h-6.65v-72.73h6.43l43.11 60.98h.57v-60.98h6.54Zm40.07 73.87c-5.09 0-9.49-1.19-13.21-3.55-3.72-2.4-6.59-5.7-8.63-9.91-2.01-4.24-3.02-9.12-3.02-14.63 0-5.5 1.01-10.37 3.02-14.63 2.04-4.29 4.84-7.64 8.42-10.05 3.6-2.44 7.75-3.66 12.46-3.66 2.96 0 5.81.54 8.56 1.63 2.75 1.07 5.21 2.71 7.39 4.94 2.2 2.2 3.94 4.98 5.22 8.34 1.27 3.34 1.91 7.3 1.91 11.86v3.13h-42.61v-5.58h36.15c0-3.5-.71-6.65-2.13-9.44-1.4-2.82-3.35-5.04-5.86-6.68-2.49-1.63-5.36-2.45-8.63-2.45-3.46 0-6.5.92-9.13 2.77-2.62 1.85-4.68 4.29-6.17 7.32-1.47 3.03-2.22 6.34-2.24 9.94v3.34c0 4.33.74 8.12 2.24 11.36 1.51 3.22 3.65 5.72 6.42 7.49 2.77 1.78 6.05 2.67 9.84 2.67 2.58 0 4.84-.4 6.78-1.21 1.97-.8 3.61-1.88 4.94-3.23 1.35-1.37 2.37-2.88 3.05-4.51l6 1.95c-.82 2.3-2.19 4.42-4.08 6.36-1.87 1.94-4.21 3.5-7.03 4.69-2.79 1.16-6.01 1.74-9.66 1.74Zm36.12-1.14v-54.55h6.36V2657h-6.36Zm3.24-63.92c-1.31 0-2.42-.44-3.34-1.31-.93-.9-1.39-1.98-1.39-3.24 0-1.25.46-2.32 1.39-3.19.92-.9 2.03-1.35 3.34-1.35 1.3 0 2.41.45 3.33 1.35.93.87 1.39 1.94 1.39 3.19 0 1.26-.46 2.34-1.39 3.24-.92.87-2.03 1.31-3.33 1.31Zm40.65 85.51c-3.72 0-6.98-.48-9.77-1.46-2.79-.94-5.15-2.24-7.07-3.9-1.91-1.66-3.4-3.52-4.47-5.58l5.18-3.41c.79 1.38 1.83 2.73 3.13 4.05 1.33 1.33 3.04 2.43 5.15 3.31 2.13.87 4.75 1.31 7.85 1.31 4.83 0 8.72-1.21 11.68-3.62 2.98-2.42 4.47-6.17 4.47-11.26v-12.29h-.56c-.74 1.66-1.79 3.32-3.16 4.97-1.38 1.64-3.18 3-5.4 4.09-2.2 1.09-4.94 1.63-8.2 1.63-4.36 0-8.23-1.08-11.62-3.23-3.36-2.15-6.01-5.23-7.95-9.23-1.92-4.03-2.88-8.82-2.88-14.38 0-5.52.94-10.37 2.81-14.56 1.89-4.19 4.53-7.46 7.92-9.81 3.38-2.34 7.32-3.51 11.82-3.51 3.34 0 6.11.59 8.31 1.77 2.2 1.16 3.97 2.61 5.29 4.34 1.35 1.72 2.41 3.41 3.16 5.04h.64v-10.41h6.18v55.97c0 4.62-.98 8.42-2.95 11.4-1.96 2.98-4.64 5.18-8.02 6.6-3.39 1.45-7.23 2.17-11.54 2.17Zm-.43-27.95c3.5 0 6.5-.84 8.99-2.52 2.48-1.7 4.39-4.14 5.71-7.31 1.33-3.18 1.99-6.95 1.99-11.33 0-4.26-.65-8.04-1.95-11.33-1.3-3.31-3.2-5.92-5.68-7.81-2.47-1.92-5.48-2.88-9.06-2.88-3.65 0-6.72.98-9.23 2.95-2.51 1.96-4.41 4.62-5.68 7.95-1.28 3.32-1.92 7.02-1.92 11.12 0 4.17.65 7.85 1.95 11.04 1.3 3.18 3.21 5.66 5.72 7.46 2.51 1.78 5.56 2.66 9.16 2.66Zm46-27.73V2657h-6.32v-72.73h6.32v26.74h.57c1.27-2.81 3.25-5.06 5.93-6.74 2.69-1.69 6.1-2.53 10.22-2.53 3.7 0 6.94.76 9.73 2.28 2.8 1.51 4.97 3.75 6.54 6.71 1.56 2.96 2.34 6.6 2.34 10.94V2657h-6.36v-34.94c0-4.5-1.25-8.04-3.76-10.62-2.49-2.61-5.85-3.91-10.09-3.91-2.91 0-5.5.62-7.77 1.85-2.27 1.23-4.07 3.01-5.4 5.33-1.3 2.29-1.95 5.03-1.95 8.2Zm53.29 34.09v-72.73h6.36v28.59h.57c.71-1.63 1.72-3.32 3.05-5.04 1.35-1.73 3.11-3.18 5.29-4.34 2.2-1.18 4.97-1.77 8.31-1.77 4.47 0 8.4 1.18 11.79 3.55 3.39 2.34 6.02 5.63 7.92 9.87 1.89 4.22 2.84 9.13 2.84 14.74 0 5.63-.95 10.57-2.84 14.81-1.87 4.24-4.5 7.54-7.88 9.91-3.37 2.36-7.27 3.55-11.72 3.55-3.32 0-6.09-.6-8.31-1.78-2.2-1.18-3.98-2.64-5.33-4.37-1.35-1.75-2.39-3.45-3.12-5.11h-.79V2657h-6.14Zm6.25-27.24c0 4.41.65 8.31 1.95 11.72 1.33 3.39 3.22 6.05 5.69 7.99 2.48 1.92 5.49 2.88 9.02 2.88 3.62 0 6.68-1 9.19-2.98 2.51-2.02 4.42-4.73 5.72-8.14 1.3-3.41 1.95-7.23 1.95-11.47 0-4.19-.65-7.96-1.95-11.33-1.28-3.36-3.17-6.02-5.68-7.99-2.51-1.98-5.59-2.98-9.23-2.98-3.56 0-6.57.96-9.06 2.88-2.46 1.89-4.34 4.52-5.65 7.88-1.3 3.34-1.95 7.19-1.95 11.54Zm74.97 28.38c-4.72 0-8.88-1.2-12.5-3.59-3.6-2.39-6.42-5.69-8.46-9.91-2.03-4.24-3.05-9.12-3.05-14.66 0-5.59 1.02-10.5 3.05-14.74 2.04-4.26 4.86-7.58 8.46-9.94 3.62-2.4 7.78-3.59 12.5-3.59 4.71 0 8.86 1.19 12.46 3.59 3.6 2.39 6.42 5.7 8.45 9.94 2.06 4.24 3.09 9.15 3.09 14.74 0 5.54-1.02 10.42-3.05 14.66-2.04 4.22-4.87 7.52-8.49 9.91-3.6 2.39-7.75 3.59-12.46 3.59Zm0-5.79c3.78 0 6.99-1.02 9.62-3.06 2.63-2.03 4.62-4.74 5.96-8.13 1.38-3.38 2.06-7.11 2.06-11.18 0-4.08-.68-7.82-2.06-11.23-1.34-3.4-3.33-6.14-5.96-8.2-2.63-2.06-5.84-3.09-9.62-3.09-3.77 0-6.98 1.03-9.63 3.09-2.63 2.06-4.63 4.8-6 8.2-1.35 3.41-2.02 7.15-2.02 11.23 0 4.07.67 7.8 2.02 11.18 1.37 3.39 3.37 6.1 6 8.13 2.63 2.04 5.84 3.06 9.63 3.06Zm37.88 4.65v-54.55h6.14v8.39h.46c1.09-2.75 2.98-4.96 5.68-6.65 2.73-1.7 5.8-2.55 9.24-2.55.52 0 1.1.01 1.74.03.64.03 1.17.05 1.59.07v6.43c-.28-.05-.78-.12-1.49-.21-.71-.1-1.48-.14-2.3-.14-2.85 0-5.38.6-7.6 1.81-2.21 1.18-3.95 2.83-5.22 4.93-1.28 2.11-1.92 4.51-1.92 7.21V2657h-6.32Zm86.39 0h-21.31v-72.73h22.59c6.93 0 12.86 1.45 17.79 4.34 4.94 2.88 8.73 7.03 11.36 12.42 2.63 5.4 3.94 11.88 3.94 19.43 0 7.62-1.35 14.17-4.05 19.64-2.67 5.44-6.58 9.62-11.71 12.53-5.12 2.91-11.32 4.37-18.61 4.37Zm-14.67-5.97h14.28c6.25 0 11.48-1.23 15.69-3.69 4.22-2.46 7.38-5.98 9.48-10.55 2.11-4.57 3.16-10.01 3.16-16.33-.02-6.27-1.06-11.67-3.12-16.19-2.04-4.53-5.07-7.99-9.09-10.41-4-2.41-8.95-3.62-14.85-3.62h-15.55v60.79Zm63.89 5.97v-54.55h6.36V2657h-6.36Zm3.24-63.92c-1.31 0-2.42-.44-3.34-1.31-.93-.9-1.39-1.98-1.39-3.24 0-1.25.46-2.32 1.39-3.19.92-.9 2.03-1.35 3.34-1.35 1.3 0 2.41.45 3.33 1.35.93.87 1.39 1.94 1.39 3.19 0 1.26-.46 2.34-1.39 3.24-.92.87-2.03 1.31-3.33 1.31Zm56.49 21.34-5.79 1.64c-.57-1.64-1.38-3.12-2.42-4.44-1.04-1.33-2.4-2.38-4.08-3.16-1.66-.79-3.72-1.18-6.18-1.18-3.69 0-6.72.88-9.09 2.63s-3.55 4.01-3.55 6.78c0 2.35.8 4.25 2.41 5.72 1.64 1.45 4.15 2.59 7.53 3.45l8.24 2.02c4.57 1.11 7.99 2.88 10.26 5.29 2.3 2.42 3.45 5.45 3.45 9.09 0 3.08-.86 5.81-2.56 8.21-1.7 2.39-4.08 4.27-7.14 5.64-3.03 1.35-6.54 2.03-10.54 2.03-5.33 0-9.72-1.2-13.18-3.59-3.46-2.42-5.67-5.9-6.64-10.44l6.07-1.49c.78 3.24 2.31 5.69 4.58 7.35 2.3 1.66 5.32 2.48 9.06 2.48 4.19 0 7.54-.93 10.05-2.8 2.51-1.89 3.76-4.26 3.76-7.1 0-2.2-.73-4.05-2.2-5.54-1.47-1.52-3.69-2.63-6.67-3.34l-8.92-2.13c-4.73-1.14-8.24-2.94-10.51-5.4-2.27-2.46-3.41-5.52-3.41-9.16 0-3.01.82-5.65 2.45-7.92 1.64-2.3 3.88-4.1 6.75-5.4 2.86-1.3 6.13-1.95 9.8-1.95 5 0 8.98 1.14 11.97 3.41 3 2.25 5.17 5.35 6.5 9.3Zm36.1-11.97v5.51h-26.03v-5.51h26.03Zm-17.9-13.06h6.36v53.37c0 2.27.39 4.06 1.17 5.36.78 1.28 1.8 2.19 3.06 2.74 1.25.52 2.59.78 4.01.78.83 0 1.54-.05 2.13-.14.59-.12 1.11-.24 1.56-.36l1.35 5.72c-.61.23-1.37.45-2.27.64-.9.21-2.01.32-3.34.32-2.32 0-4.56-.51-6.71-1.53-2.13-1.02-3.88-2.53-5.26-4.55-1.37-2.01-2.06-4.51-2.06-7.49v-54.86Zm47.49 68.85c-3.29 0-6.3-.64-9.02-1.91-2.72-1.31-4.89-3.18-6.5-5.62-1.61-2.46-2.41-5.44-2.41-8.94 0-2.7.51-4.98 1.53-6.82 1.01-1.85 2.46-3.36 4.33-4.55 1.87-1.18 4.08-2.12 6.64-2.8 2.56-.69 5.37-1.22 8.45-1.6 3.05-.38 5.63-.71 7.74-1 2.13-.28 3.75-.73 4.87-1.35 1.11-.61 1.67-1.61 1.67-2.98v-1.28c0-3.71-1.12-6.64-3.34-8.77-2.2-2.15-5.38-3.23-9.52-3.23-3.93 0-7.14.86-9.62 2.59-2.46 1.73-4.19 3.77-5.19 6.11l-6-2.17c1.23-2.98 2.94-5.36 5.11-7.13 2.18-1.8 4.62-3.09 7.32-3.87 2.7-.81 5.43-1.21 8.2-1.21 2.09 0 4.25.27 6.5.82 2.27.54 4.38 1.49 6.32 2.84 1.94 1.32 3.52 3.18 4.73 5.57 1.2 2.37 1.81 5.38 1.81 9.02V2657h-6.32v-8.63h-.39c-.76 1.61-1.89 3.17-3.38 4.69-1.49 1.51-3.36 2.76-5.61 3.73-2.25.97-4.89 1.45-7.92 1.45Zm.85-5.79c3.37 0 6.28-.74 8.74-2.23s4.36-3.47 5.68-5.93c1.35-2.49 2.03-5.22 2.03-8.21v-7.88c-.48.45-1.27.85-2.38 1.21-1.09.35-2.36.67-3.8.96-1.42.26-2.84.48-4.26.67-1.42.19-2.7.36-3.84.5-3.08.38-5.71.97-7.88 1.77-2.18.81-3.85 1.92-5.01 3.34-1.16 1.4-1.74 3.2-1.74 5.4 0 3.31 1.18 5.88 3.55 7.71 2.37 1.79 5.34 2.69 8.91 2.69Zm45.9-29.54V2657h-6.32v-54.55h6.15v8.56h.56c1.28-2.79 3.27-5.03 5.97-6.71 2.72-1.7 6.08-2.56 10.08-2.56 3.67 0 6.89.77 9.66 2.31 2.8 1.52 4.96 3.75 6.5 6.71 1.56 2.96 2.35 6.6 2.35 10.91V2657h-6.33v-34.94c0-4.48-1.25-8.02-3.76-10.62-2.49-2.61-5.82-3.91-10.01-3.91-2.87 0-5.41.62-7.64 1.85-2.22 1.23-3.99 3.01-5.29 5.33-1.28 2.29-1.92 5.03-1.92 8.2Zm72.9 35.23c-4.88 0-9.13-1.22-12.75-3.66-3.6-2.44-6.39-5.78-8.38-10.02-1.99-4.23-2.98-9.06-2.98-14.48 0-5.47 1-10.34 3.01-14.6 2.04-4.26 4.86-7.6 8.46-10.01 3.6-2.44 7.77-3.66 12.53-3.66 3.65 0 6.95.71 9.91 2.13 2.96 1.4 5.4 3.37 7.32 5.93 1.94 2.53 3.16 5.49 3.65 8.88h-6.39c-.66-3.08-2.26-5.71-4.79-7.89-2.51-2.2-5.71-3.3-9.59-3.3-3.48 0-6.56.95-9.23 2.84-2.68 1.87-4.77 4.49-6.29 7.85-1.49 3.34-2.24 7.21-2.24 11.61 0 4.43.74 8.35 2.2 11.76 1.47 3.38 3.53 6.03 6.18 7.95 2.68 1.92 5.8 2.88 9.38 2.88 2.41 0 4.62-.45 6.6-1.35 2.02-.92 3.7-2.23 5.05-3.91 1.37-1.68 2.29-3.68 2.77-6h6.39c-.48 3.29-1.65 6.23-3.52 8.81-1.84 2.55-4.25 4.57-7.21 6.03-2.93 1.47-6.29 2.21-10.08 2.21Zm56.41 0c-5.09 0-9.49-1.19-13.21-3.55-3.72-2.4-6.6-5.7-8.63-9.91-2.01-4.24-3.02-9.12-3.02-14.63 0-5.5 1.01-10.37 3.02-14.63 2.03-4.29 4.84-7.64 8.42-10.05 3.59-2.44 7.75-3.66 12.46-3.66 2.96 0 5.81.54 8.56 1.63 2.74 1.07 5.21 2.71 7.38 4.94 2.21 2.2 3.95 4.98 5.22 8.34 1.28 3.34 1.92 7.3 1.92 11.86v3.13h-42.61v-5.58h36.15c0-3.5-.71-6.65-2.13-9.44-1.4-2.82-3.35-5.04-5.86-6.68-2.49-1.63-5.36-2.45-8.63-2.45-3.46 0-6.5.92-9.13 2.77-2.62 1.85-4.68 4.29-6.18 7.32-1.46 3.03-2.21 6.34-2.23 9.94v3.34c0 4.33.74 8.12 2.23 11.36 1.52 3.22 3.66 5.72 6.43 7.49 2.77 1.78 6.05 2.67 9.84 2.67 2.58 0 4.84-.4 6.78-1.21 1.97-.8 3.61-1.88 4.94-3.23 1.35-1.37 2.36-2.88 3.05-4.51l6 1.95c-.83 2.3-2.19 4.42-4.08 6.36-1.87 1.94-4.22 3.5-7.03 4.69-2.8 1.16-6.02 1.74-9.66 1.74Z"/>
  <path fill="#fff" d="M2208.64 2975v-54.55h34.94v8.29h-25.06v14.81h22.66v8.28h-22.66V2975h-9.88Zm92.68-27.27c0 5.87-1.1 10.91-3.3 15.1-2.18 4.17-5.17 7.37-8.95 9.59-3.76 2.22-8.03 3.33-12.81 3.33-4.78 0-9.05-1.11-12.84-3.33-3.76-2.24-6.74-5.45-8.95-9.62-2.18-4.19-3.27-9.21-3.27-15.07 0-5.88 1.09-10.9 3.27-15.08 2.21-4.19 5.19-7.39 8.95-9.61 3.79-2.22 8.06-3.33 12.84-3.33 4.78 0 9.05 1.11 12.81 3.33 3.78 2.22 6.77 5.42 8.95 9.61 2.2 4.18 3.3 9.2 3.3 15.08Zm-9.93 0c0-4.14-.65-7.63-1.95-10.47-1.27-2.86-3.05-5.02-5.32-6.47-2.28-1.48-4.89-2.21-7.86-2.21-2.96 0-5.58.73-7.86 2.21-2.27 1.45-4.05 3.61-5.35 6.47-1.28 2.84-1.92 6.33-1.92 10.47 0 4.13.64 7.63 1.92 10.49 1.3 2.84 3.08 5 5.35 6.47 2.28 1.46 4.9 2.19 7.86 2.19 2.97 0 5.58-.73 7.86-2.19 2.27-1.47 4.05-3.63 5.32-6.47 1.3-2.86 1.95-6.36 1.95-10.49Zm53.66-27.28h9.88v35.64c0 3.91-.92 7.34-2.77 10.31-1.83 2.96-4.4 5.28-7.72 6.95-3.32 1.65-7.2 2.48-11.64 2.48-4.46 0-8.35-.83-11.67-2.48-3.32-1.67-5.89-3.99-7.72-6.95-1.83-2.97-2.75-6.4-2.75-10.31v-35.64h9.89v34.81c0 2.28.49 4.3 1.49 6.08 1.01 1.77 2.43 3.17 4.26 4.18 1.83.99 3.99 1.49 6.5 1.49 2.5 0 4.67-.5 6.5-1.49 1.84-1.01 3.26-2.41 4.26-4.18.99-1.78 1.49-3.8 1.49-6.08v-34.81Zm65.44 0V2975h-8.79l-25.7-37.15h-.45V2975h-9.88v-54.55h8.84l25.68 37.18h.48v-37.18h9.82Zm29.25 54.55h-18.48v-54.55h18.86c5.41 0 10.06 1.1 13.95 3.28 3.91 2.17 6.91 5.28 9 9.35 2.1 4.06 3.15 8.93 3.15 14.59 0 5.69-1.06 10.57-3.17 14.65-2.1 4.09-5.12 7.22-9.08 9.4-3.95 2.19-8.69 3.28-14.23 3.28Zm-8.6-8.55h8.12c3.8 0 6.97-.69 9.51-2.08 2.54-1.4 4.45-3.49 5.73-6.26 1.28-2.78 1.92-6.26 1.92-10.44 0-4.17-.64-7.63-1.92-10.38-1.28-2.77-3.17-4.84-5.67-6.21-2.49-1.38-5.58-2.08-9.27-2.08h-8.42v37.45Zm48.54 8.55h-10.55l19.21-54.55h12.2l19.22 54.55h-10.54l-14.57-43.36h-.43l-14.54 43.36Zm.35-21.39h28.76v7.94h-28.76v-7.94Zm37.93-24.87v-8.29h43.52v8.29h-16.86V2975h-9.8v-46.26h-16.86Zm61.79-8.29V2975h-9.88v-54.55h9.88Zm59.44 27.28c0 5.87-1.1 10.91-3.3 15.1-2.19 4.17-5.17 7.37-8.95 9.59-3.77 2.22-8.04 3.33-12.81 3.33-4.78 0-9.06-1.11-12.84-3.33-3.76-2.24-6.75-5.45-8.95-9.62-2.18-4.19-3.28-9.21-3.28-15.07 0-5.88 1.1-10.9 3.28-15.08 2.2-4.19 5.19-7.39 8.95-9.61 3.78-2.22 8.06-3.33 12.84-3.33 4.77 0 9.04 1.11 12.81 3.33 3.78 2.22 6.76 5.42 8.95 9.61 2.2 4.18 3.3 9.2 3.3 15.08Zm-9.94 0c0-4.14-.64-7.63-1.94-10.47-1.28-2.86-3.05-5.02-5.33-6.47-2.27-1.48-4.89-2.21-7.85-2.21-2.97 0-5.59.73-7.86 2.21-2.27 1.45-4.06 3.61-5.35 6.47-1.28 2.84-1.92 6.33-1.92 10.47 0 4.13.64 7.63 1.92 10.49 1.29 2.84 3.08 5 5.35 6.47 2.27 1.46 4.89 2.19 7.86 2.19 2.96 0 5.58-.73 7.85-2.19 2.28-1.47 4.05-3.63 5.33-6.47 1.3-2.86 1.94-6.36 1.94-10.49Zm64.11-27.28V2975h-8.79l-25.71-37.15h-.45V2975h-9.88v-54.55h8.84l25.68 37.18h.48v-37.18h9.83Zm-283.42 109.41h-9.96c-.28-1.64-.81-3.08-1.57-4.34-.76-1.28-1.71-2.36-2.85-3.25a11.77 11.77 0 0 0-3.89-2c-1.44-.46-2.99-.69-4.66-.69-2.97 0-5.59.74-7.88 2.23-2.29 1.48-4.09 3.64-5.38 6.5-1.3 2.84-1.95 6.32-1.95 10.42 0 4.17.65 7.69 1.95 10.54 1.31 2.85 3.1 4.99 5.38 6.45 2.29 1.44 4.91 2.16 7.85 2.16 1.64 0 3.16-.22 4.58-.64 1.44-.45 2.73-1.09 3.87-1.95 1.15-.85 2.12-1.9 2.9-3.14.8-1.24 1.35-2.66 1.65-4.26l9.96.05c-.37 2.59-1.18 5.03-2.42 7.3a21.615 21.615 0 0 1-4.82 6.02c-1.99 1.72-4.32 3.07-6.98 4.05-2.66.96-5.62 1.44-8.87 1.44-4.79 0-9.07-1.11-12.84-3.33-3.76-2.22-6.73-5.43-8.89-9.62-2.17-4.19-3.25-9.21-3.25-15.07 0-5.88 1.09-10.9 3.27-15.08 2.19-4.19 5.16-7.39 8.93-9.61 3.76-2.22 8.02-3.33 12.78-3.33 3.04 0 5.86.42 8.47 1.28 2.61.85 4.94 2.1 6.98 3.75 2.04 1.64 3.72 3.64 5.03 6.02 1.33 2.36 2.2 5.06 2.61 8.1Zm9.05 36.14v-54.55h35.48v8.29h-25.6v14.81h23.76v8.28h-23.76v14.89h25.81v8.28h-35.69Zm45.56 0v-54.55h9.88v46.27h24.02v8.28h-33.9Zm42.48 0v-54.55h9.88v46.27h24.02v8.28h-33.9Zm2201.02-145.55V2975h-8.79l-25.7-37.15h-.45V2975h-9.88v-54.55h8.84l25.67 37.18h.48v-37.18h9.83Zm10.77 54.55v-54.55h35.47v8.29h-25.59v14.81h23.76v8.28h-23.76v14.89h25.81v8.28h-35.69Zm55.43-54.55V2975h-9.88v-54.55h9.88Zm47.25 17.42c-.45-1.44-1.06-2.72-1.84-3.86-.77-1.15-1.69-2.14-2.77-2.96-1.07-.81-2.29-1.42-3.68-1.83-1.38-.43-2.89-.64-4.52-.64-2.93 0-5.54.73-7.84 2.21-2.29 1.47-4.09 3.64-5.4 6.5-1.3 2.84-1.95 6.3-1.95 10.38 0 4.12.65 7.61 1.95 10.47 1.29 2.86 3.1 5.03 5.4 6.53 2.31 1.47 4.99 2.21 8.05 2.21 2.77 0 5.17-.54 7.19-1.6 2.04-1.07 3.61-2.58 4.71-4.53 1.1-1.97 1.65-4.28 1.65-6.92l2.24.34h-14.81v-7.72h22.14v6.55c0 4.67-1 8.71-2.99 12.12-1.99 3.41-4.72 6.04-8.2 7.88-3.48 1.83-7.48 2.75-11.99 2.75-5.02 0-9.43-1.13-13.23-3.39-3.78-2.27-6.74-5.49-8.87-9.66-2.11-4.2-3.17-9.17-3.17-14.92 0-4.4.62-8.34 1.86-11.8 1.26-3.46 3.02-6.4 5.28-8.81 2.25-2.44 4.9-4.28 7.93-5.54 3.04-1.28 6.34-1.92 9.91-1.92 3.02 0 5.83.44 8.44 1.33 2.61.87 4.93 2.11 6.96 3.73 2.04 1.61 3.72 3.53 5.03 5.75s2.17 4.67 2.58 7.35h-10.06Zm20.07 37.13v-54.55h9.88v23.1h25.28v-23.1h9.9V2975h-9.9v-23.17h-25.28V2975h-9.88Zm55.81 0v-54.55h20.88c3.94 0 7.22.63 9.83 1.87 2.63 1.22 4.59 2.9 5.89 5.03 1.31 2.13 1.97 4.55 1.97 7.25 0 2.22-.43 4.12-1.28 5.7-.85 1.56-2 2.83-3.44 3.81-1.44.97-3.04 1.67-4.82 2.1v.53c1.94.11 3.79.7 5.57 1.79 1.79 1.06 3.26 2.57 4.39 4.52 1.14 1.96 1.71 4.32 1.71 7.09 0 2.82-.69 5.36-2.05 7.62-1.37 2.23-3.43 4-6.18 5.3-2.75 1.29-6.22 1.94-10.39 1.94h-22.08Zm9.88-8.26h10.63c3.59 0 6.17-.68 7.75-2.05 1.6-1.38 2.4-3.16 2.4-5.32 0-1.62-.4-3.08-1.2-4.37-.8-1.32-1.94-2.35-3.41-3.09-1.47-.76-3.23-1.15-5.27-1.15h-10.9v15.98Zm0-23.09h9.78c1.7 0 3.24-.31 4.6-.93 1.37-.64 2.45-1.54 3.23-2.69.8-1.17 1.2-2.56 1.2-4.15 0-2.12-.75-3.86-2.24-5.22-1.48-1.37-3.67-2.06-6.58-2.06h-9.99v15.05Zm88.15 4.08c0 5.87-1.1 10.91-3.3 15.1-2.18 4.17-5.17 7.37-8.95 9.59-3.76 2.22-8.03 3.33-12.81 3.33-4.78 0-9.05-1.11-12.84-3.33-3.76-2.24-6.74-5.45-8.95-9.62-2.18-4.19-3.27-9.21-3.27-15.07 0-5.88 1.09-10.9 3.27-15.08 2.21-4.19 5.19-7.39 8.95-9.61 3.79-2.22 8.06-3.33 12.84-3.33 4.78 0 9.05 1.11 12.81 3.33 3.78 2.22 6.77 5.42 8.95 9.61 2.2 4.18 3.3 9.2 3.3 15.08Zm-9.93 0c0-4.14-.65-7.63-1.95-10.47-1.27-2.86-3.05-5.02-5.32-6.47-2.28-1.48-4.89-2.21-7.86-2.21-2.96 0-5.58.73-7.86 2.21-2.27 1.45-4.05 3.61-5.35 6.47-1.28 2.84-1.92 6.33-1.92 10.47 0 4.13.64 7.63 1.92 10.49 1.3 2.84 3.08 5 5.35 6.47 2.28 1.46 4.9 2.19 7.86 2.19 2.97 0 5.58-.73 7.86-2.19 2.27-1.47 4.05-3.63 5.32-6.47 1.3-2.86 1.95-6.36 1.95-10.49Zm19.27 27.27v-54.55h20.46c4.19 0 7.7.73 10.55 2.19 2.85 1.45 5.01 3.5 6.47 6.12 1.47 2.61 2.21 5.66 2.21 9.14 0 3.5-.75 6.53-2.24 9.11-1.47 2.55-3.65 4.53-6.52 5.94-2.88 1.38-6.41 2.07-10.6 2.07h-14.57v-8.2h13.23c2.45 0 4.46-.34 6.02-1.01 1.57-.69 2.72-1.7 3.47-3.01.76-1.33 1.14-2.97 1.14-4.9 0-1.94-.38-3.59-1.14-4.95-.77-1.39-1.93-2.44-3.49-3.15-1.57-.73-3.58-1.09-6.05-1.09h-9.05V2975h-9.89Zm28.18-24.72 13.51 24.72h-11.03l-13.26-24.72h10.78ZM4610.64 3066v-54.55h34.94v8.29h-25.06v14.81h22.66v8.28h-22.66V3066h-9.88Zm92.68-27.27c0 5.87-1.1 10.91-3.3 15.1-2.18 4.17-5.17 7.37-8.95 9.59-3.76 2.22-8.03 3.33-12.81 3.33-4.78 0-9.05-1.11-12.84-3.33-3.76-2.24-6.74-5.45-8.95-9.62-2.18-4.19-3.27-9.21-3.27-15.07 0-5.88 1.09-10.9 3.27-15.08 2.21-4.19 5.19-7.39 8.95-9.61 3.79-2.22 8.06-3.33 12.84-3.33 4.78 0 9.05 1.11 12.81 3.33 3.78 2.22 6.77 5.42 8.95 9.61 2.2 4.18 3.3 9.2 3.3 15.08Zm-9.93 0c0-4.14-.65-7.63-1.95-10.47-1.27-2.86-3.05-5.02-5.32-6.47-2.28-1.48-4.89-2.21-7.86-2.21-2.96 0-5.58.73-7.86 2.21-2.27 1.45-4.05 3.61-5.35 6.47-1.28 2.84-1.92 6.33-1.92 10.47 0 4.13.64 7.63 1.92 10.49 1.3 2.84 3.08 5 5.35 6.47 2.28 1.46 4.9 2.19 7.86 2.19 2.97 0 5.58-.73 7.86-2.19 2.27-1.47 4.05-3.63 5.32-6.47 1.3-2.86 1.95-6.36 1.95-10.49Zm53.66-27.28h9.88v35.64c0 3.91-.92 7.34-2.77 10.31-1.83 2.96-4.4 5.28-7.72 6.95-3.32 1.65-7.2 2.48-11.64 2.48-4.46 0-8.35-.83-11.67-2.48-3.32-1.67-5.89-3.99-7.72-6.95-1.83-2.97-2.75-6.4-2.75-10.31v-35.64h9.89v34.81c0 2.28.49 4.3 1.49 6.08 1.01 1.77 2.43 3.17 4.26 4.18 1.83.99 3.99 1.49 6.5 1.49 2.5 0 4.67-.5 6.5-1.49 1.84-1.01 3.26-2.41 4.26-4.18.99-1.78 1.49-3.8 1.49-6.08v-34.81Zm65.44 0V3066h-8.79l-25.7-37.15h-.45V3066h-9.88v-54.55h8.84l25.68 37.18h.48v-37.18h9.82Zm29.25 54.55h-18.48v-54.55h18.86c5.41 0 10.06 1.1 13.95 3.28 3.91 2.17 6.91 5.28 9 9.35 2.1 4.06 3.15 8.93 3.15 14.59 0 5.69-1.06 10.57-3.17 14.65-2.1 4.09-5.12 7.22-9.08 9.4-3.95 2.19-8.69 3.28-14.23 3.28Zm-8.6-8.55h8.12c3.8 0 6.97-.69 9.51-2.08 2.54-1.4 4.45-3.49 5.73-6.26 1.28-2.78 1.92-6.26 1.92-10.44 0-4.17-.64-7.63-1.92-10.38-1.28-2.77-3.17-4.84-5.67-6.21-2.49-1.38-5.58-2.08-9.27-2.08h-8.42v37.45Zm48.54 8.55h-10.55l19.21-54.55h12.2l19.22 54.55h-10.54l-14.57-43.36h-.43l-14.54 43.36Zm.35-21.39h28.76v7.94h-28.76v-7.94Zm37.93-24.87v-8.29h43.52v8.29h-16.86V3066h-9.8v-46.26h-16.86Zm61.79-8.29V3066h-9.88v-54.55h9.88Zm59.44 27.28c0 5.87-1.1 10.91-3.3 15.1-2.19 4.17-5.17 7.37-8.95 9.59-3.77 2.22-8.04 3.33-12.81 3.33-4.78 0-9.06-1.11-12.84-3.33-3.76-2.24-6.75-5.45-8.95-9.62-2.18-4.19-3.28-9.21-3.28-15.07 0-5.88 1.1-10.9 3.28-15.08 2.2-4.19 5.19-7.39 8.95-9.61 3.78-2.22 8.06-3.33 12.84-3.33 4.77 0 9.04 1.11 12.81 3.33 3.78 2.22 6.76 5.42 8.95 9.61 2.2 4.18 3.3 9.2 3.3 15.08Zm-9.94 0c0-4.14-.64-7.63-1.94-10.47-1.28-2.86-3.05-5.02-5.33-6.47-2.27-1.48-4.89-2.21-7.85-2.21-2.97 0-5.59.73-7.86 2.21-2.27 1.45-4.06 3.61-5.35 6.47-1.28 2.84-1.92 6.33-1.92 10.47 0 4.13.64 7.63 1.92 10.49 1.29 2.84 3.08 5 5.35 6.47 2.27 1.46 4.89 2.19 7.86 2.19 2.96 0 5.58-.73 7.85-2.19 2.28-1.47 4.05-3.63 5.33-6.47 1.3-2.86 1.94-6.36 1.94-10.49Zm64.11-27.28V3066h-8.79l-25.71-37.15h-.45V3066h-9.88v-54.55h8.84l25.68 37.18h.48v-37.18h9.83Zm-283.42 109.41h-9.96c-.28-1.64-.81-3.08-1.57-4.34-.76-1.28-1.71-2.36-2.85-3.25a11.77 11.77 0 0 0-3.89-2c-1.44-.46-2.99-.69-4.66-.69-2.97 0-5.59.74-7.88 2.23-2.29 1.48-4.09 3.64-5.38 6.5-1.3 2.84-1.95 6.32-1.95 10.42 0 4.17.65 7.69 1.95 10.54 1.31 2.85 3.1 4.99 5.38 6.45 2.29 1.44 4.91 2.16 7.85 2.16 1.64 0 3.16-.22 4.58-.64 1.44-.45 2.73-1.09 3.87-1.95 1.15-.85 2.12-1.9 2.9-3.14.8-1.24 1.35-2.66 1.65-4.26l9.96.05c-.37 2.59-1.18 5.03-2.42 7.3a21.615 21.615 0 0 1-4.82 6.02c-1.99 1.72-4.32 3.07-6.98 4.05-2.66.96-5.62 1.44-8.87 1.44-4.79 0-9.07-1.11-12.84-3.33-3.76-2.22-6.73-5.43-8.89-9.62-2.17-4.19-3.25-9.21-3.25-15.07 0-5.88 1.09-10.9 3.27-15.08 2.19-4.19 5.16-7.39 8.93-9.61 3.76-2.22 8.02-3.33 12.78-3.33 3.04 0 5.86.42 8.47 1.28 2.61.85 4.94 2.1 6.98 3.75 2.04 1.64 3.72 3.64 5.03 6.02 1.33 2.36 2.2 5.06 2.61 8.1Zm9.05 36.14v-54.55h35.48v8.29h-25.6v14.81h23.76v8.28h-23.76v14.89h25.81v8.28h-35.69Zm45.56 0v-54.55h9.88v46.27h24.02v8.28h-33.9Zm42.48 0v-54.55h9.88v46.27h24.02v8.28h-33.9Z"/>
</svg>
